<?xml version="1.0" encoding="UTF-8"?>
<svg id="Layer_1" xmlns="http://www.w3.org/2000/svg" version="1.1" viewBox="0 0 732.07 229.26">
  <!-- Generator: Adobe Illustrator 29.0.0, SVG Export Plug-In . SVG Version: 2.1.0 Build 186)  -->
  <defs>
    <style>
      .st0 {
        fill: #0a0706;
        fill-rule: evenodd;
      }
    </style>
  </defs>
  <g>
    <path d="M426.31,147.48h-17.46v-21.87h-33.74v21.87h-17.63v-56.72h17.63v20.09h33.74v-20.09h17.46v56.72Z"/>
    <path d="M461.06,147.48l10.6-14.58h14.24c3.39,0,7.38,0,10.09.17-1.53-2.03-3.9-5.51-5.76-8.22l-10.17-15.01-26.62,37.64h-20.77l36.37-51.29c2.37-3.31,5.85-6.36,11.36-6.36s8.73,2.8,11.19,6.36l35.44,51.29h-65.96Z"/>
    <path d="M571.27,147.48h-37.98v-35.35h17.63v20.77h20.35c9.75,0,16.79-5.43,16.79-13.56s-7.29-13.82-16.79-13.82h-37.98l11.19-14.75h26.79c19.84,0,34.17,11.45,34.17,27.81s-14.5,28.91-34.17,28.91Z"/>
    <path d="M632.14,147.48h-17.55v-56.72h17.55v56.72Z"/>
    <path d="M695.64,113.4c13.82,0,21.28,5.17,21.28,15.51,0,11.61-7.04,18.57-24.33,18.57h-52.82l11.28-14.58h42.9c4.15,0,6.02-1.19,6.02-4.15s-1.87-4.07-6.02-4.07h-30.86c-14.58,0-21.28-6.53-21.28-16.28,0-10.68,7.12-17.63,24.33-17.63h49.26l-11.28,14.75h-39.34c-4.07,0-6.02,1.02-6.02,3.9s1.95,3.98,6.02,3.98h30.86Z"/>
  </g>
  <path class="st0" d="M272.78,39.79c3.39,1.11,6.67,2.41,9.82,3.9-.36.72-.67,1.46-.93,2.25-2.79,8.53,1.87,17.7,10.39,20.49,5.94,1.94,12.19.28,16.39-3.8,4.59,4.97,8.55,10.46,11.81,16.33-4.05,1.8-7.35,5.25-8.83,9.79-2.79,8.52,1.86,17.7,10.38,20.48,2.84.93,5.75,1.03,8.47.44.8,6.51.85,13.17.07,19.85-8.09-1.85-16.4,2.74-19.04,10.79-2.66,8.13,1.46,16.87,9.25,20.07-3.24,5.93-7.13,11.36-11.55,16.22-1.84-2.07-4.24-3.7-7.07-4.62-4.5-1.47-9.19-.87-13.03,1.29v-15.39c5.11-5.7,9.16-12.53,11.69-20.28,9.76-29.85-6.52-61.95-36.37-71.72-10.17-3.33-20.6-3.63-30.32-1.41v46.48h25.27v-32.12l19.69,11.24v107.74c-5.07,2.11-10.35,3.73-15.77,4.82-.83-5.96-4.94-11.22-11.05-13.21-8.52-2.79-17.7,1.86-20.49,10.38-.32.99-.54,1.99-.67,3-3.53-.68-7.05-1.58-10.57-2.73-3.35-1.1-6.58-2.38-9.69-3.84.55-.95,1-1.97,1.36-3.05,2.79-8.54-1.86-17.7-10.39-20.49-6.25-2.04-12.84-.1-17.01,4.45-4.75-5.15-8.82-10.86-12.15-16.98,4.11-1.78,7.46-5.25,8.96-9.85,2.79-8.52-1.86-17.69-10.38-20.48-2.77-.91-5.61-1.02-8.28-.49-.76-6.75-.71-13.64.22-20.56,7.75,1.24,15.48-3.3,17.99-11,2.48-7.61-.96-15.75-7.8-19.38,3.42-6.06,7.53-11.59,12.19-16.5,1.75,1.73,3.9,3.08,6.39,3.9,4.29,1.4,8.74.92,12.46-.98v17.16c-5.11,5.7-9.15,12.53-11.69,20.28-9.76,29.85,6.51,61.95,36.36,71.72,10.17,3.33,20.59,3.63,30.31,1.41v-46.96h-25.27v26.93l-19.69-11.24V42.05c5.25-2.18,10.73-3.84,16.35-4.92.96,5.77,5.02,10.83,10.98,12.78,8.53,2.79,17.7-1.86,20.49-10.39.26-.79.45-1.58.58-2.37,3.4.67,6.78,1.54,10.15,2.64"/>
</svg>